<svg width="170" height="110" xmlns="http://www.w3.org/2000/svg">
 <!-- Created with Method Draw - http://github.com/duopixel/Method-Draw/ -->

 <g>
  <title>background</title>
  <rect fill="#333333" id="canvas_background" height="112" width="172" y="-1" x="-1"/>
  <g display="none" overflow="visible" y="0" x="0" height="100%" width="100%" id="canvasGrid">
   <rect fill="url(#gridpattern)" stroke-width="0" y="2" x="2" height="400" width="580"/>
  </g>
 </g>
 <g>
  <title>Layer 1</title>
  <ellipse stroke="#B6C7EA" ry="52.000023" rx="81.50006" id="svg_27" cy="56.500934" cx="86.001955" stroke-width="1.5" fill="#7077cc"/>
  <g stroke="null" id="svg_22">
   <g stroke="null" transform="matrix(0.25506272988539375,0,0,0.1908512555933522,-634.5293441608446,-169.17331528693467) " id="svg_5">
    <path stroke="null" id="svg_6" fill="#91DC5A" d="m2908.868547,1256.300692c-27.7,0 -52.4,13.2 -68.2,33.6l-132.3,-73.9c3.1,-8.9 4.8,-18.5 4.8,-28.4c0,-10 -1.7,-19.5 -4.9,-28.5l132.2,-73.8c15.7,20.5 40.5,33.8 68.3,33.8c47.4,0 86.1,-38.6 86.1,-86.1s-38.6,-86.1 -86.1,-86.1s-86.1,38.6 -86.1,86.1c0,10 1.7,19.6 4.9,28.5l-132.1,73.8c-15.7,-20.6 -40.5,-33.8 -68.3,-33.8c-47.4,0 -86.1,38.6 -86.1,86.1s38.7,86.1 86.2,86.1c27.8,0 52.6,-13.3 68.4,-33.9l132.2,73.9c-3.2,9 -5,18.7 -5,28.7c0,47.4 38.6,86.1 86.1,86.1s86.1,-38.6 86.1,-86.1s-38.7,-86.1 -86.2,-86.1zm0,-282.3c32.6,0 59.1,26.5 59.1,59.1s-26.5,59.1 -59.1,59.1s-59.1,-26.5 -59.1,-59.1s26.6,-59.1 59.1,-59.1zm-281.6,272.7c-32.6,0 -59.1,-26.5 -59.1,-59.1s26.5,-59.1 59.1,-59.1s59.1,26.5 59.1,59.1s-26.6,59.1 -59.1,59.1zm281.6,154.7c-32.6,0 -59.1,-26.5 -59.1,-59.1c0,-32.6 26.5,-59.1 59.1,-59.1s59.1,26.5 59.1,59.1c0,32.6 -26.5,59.1 -59.1,59.1z"/>
   </g>
   <g stroke="null" transform="matrix(0.25506272988539375,0,0,0.1908512555933522,-634.5293441608446,-169.17331528693467) " id="svg_7"/>
   <g stroke="null" transform="matrix(0.25506272988539375,0,0,0.1908512555933522,-634.5293441608446,-169.17331528693467) " id="svg_8"/>
   <g stroke="null" transform="matrix(0.25506272988539375,0,0,0.1908512555933522,-634.5293441608446,-169.17331528693467) " id="svg_9"/>
   <g stroke="null" transform="matrix(0.25506272988539375,0,0,0.1908512555933522,-634.5293441608446,-169.17331528693467) " id="svg_10"/>
   <g stroke="null" transform="matrix(0.25506272988539375,0,0,0.1908512555933522,-634.5293441608446,-169.17331528693467) " id="svg_11"/>
   <g stroke="null" transform="matrix(0.25506272988539375,0,0,0.1908512555933522,-634.5293441608446,-169.17331528693467) " id="svg_12"/>
   <g stroke="null" transform="matrix(0.25506272988539375,0,0,0.1908512555933522,-634.5293441608446,-169.17331528693467) " id="svg_13"/>
   <g stroke="null" transform="matrix(0.25506272988539375,0,0,0.1908512555933522,-634.5293441608446,-169.17331528693467) " id="svg_14"/>
   <g stroke="null" transform="matrix(0.25506272988539375,0,0,0.1908512555933522,-634.5293441608446,-169.17331528693467) " id="svg_15"/>
   <g stroke="null" transform="matrix(0.25506272988539375,0,0,0.1908512555933522,-634.5293441608446,-169.17331528693467) " id="svg_16"/>
   <g stroke="null" transform="matrix(0.25506272988539375,0,0,0.1908512555933522,-634.5293441608446,-169.17331528693467) " id="svg_17"/>
   <g stroke="null" transform="matrix(0.25506272988539375,0,0,0.1908512555933522,-634.5293441608446,-169.17331528693467) " id="svg_18"/>
   <g stroke="null" transform="matrix(0.25506272988539375,0,0,0.1908512555933522,-634.5293441608446,-169.17331528693467) " id="svg_19"/>
   <g stroke="null" transform="matrix(0.25506272988539375,0,0,0.1908512555933522,-634.5293441608446,-169.17331528693467) " id="svg_20"/>
   <g stroke="null" transform="matrix(0.25506272988539375,0,0,0.1908512555933522,-634.5293441608446,-169.17331528693467) " id="svg_21"/>
  </g>
  <text font-weight="bold" font-style="italic" xml:space="preserve" text-anchor="start" font-family="Helvetica, Arial, sans-serif" font-size="24" id="svg_23" y="67.500913" x="61.501965" stroke-width="0" stroke="#000" fill="#ffffff">TechBiz</text>
  <ellipse stroke="#B6C7EA" ry="2" id="svg_28" cy="165.5" cx="256.5" stroke-width="1.5" fill="#7077cc"/>
 </g>
</svg>